<svg xmlns="http://www.w3.org/2000/svg" viewBox="0 0 24 24" width="24" height="24" color="#bb0033" fill="none">
    <defs />
    <path fill="currentColor" d="M12.75,1.25 C13.164,1.25 13.5,1.586 13.5,2 L13.5,2.816 C15.41,3.156 16.878,4.771 16.993,6.75 L17.25,6.75 C17.664,6.75 18,7.086 18,7.5 C18,7.914 17.664,8.25 17.25,8.25 L17,8.25 L17,9 C17,11.347 15.097,13.25 12.75,13.25 C10.403,13.25 8.5,11.347 8.5,9 L8.5,8.25 L8.25,8.25 C7.836,8.25 7.5,7.914 7.5,7.5 C7.5,7.086 7.836,6.75 8.25,6.75 L8.507,6.75 C8.622,4.771 10.09,3.156 12,2.816 L12,2 C12,1.586 12.336,1.25 12.75,1.25 Z M10.75,14.25 C10.949,14.25 11.14,14.329 11.28,14.47 L12.75,15.939 L14.22,14.47 C14.36,14.329 14.551,14.25 14.75,14.25 L16.805,14.25 C17.702,14.25 18.45,14.25 19.045,14.33 C19.672,14.414 20.239,14.6 20.694,15.056 C21.15,15.511 21.336,16.078 21.42,16.705 C21.5,17.3 21.5,18.049 21.5,18.948 L21.5,22 C21.5,22.414 21.164,22.75 20.75,22.75 C20.336,22.75 20,22.414 20,22 L20,19 C20,18.036 19.998,17.388 19.934,16.905 C19.871,16.444 19.764,16.246 19.634,16.116 C19.504,15.986 19.306,15.879 18.845,15.816 C18.499,15.77 18.069,15.756 17.5,15.752 L17.5,22 C17.5,22.414 17.164,22.75 16.75,22.75 C16.336,22.75 16,22.414 16,22 L16,15.75 L15.061,15.75 L13.28,17.53 C12.987,17.823 12.513,17.823 12.22,17.53 L10.439,15.75 L9.5,15.75 L9.5,22 C9.5,22.414 9.164,22.75 8.75,22.75 C8.336,22.75 8,22.414 8,22 L8,15.752 C7.431,15.756 7.001,15.77 6.655,15.816 C6.194,15.879 5.996,15.986 5.866,16.116 C5.736,16.246 5.629,16.444 5.567,16.905 C5.502,17.388 5.5,18.036 5.5,19 L5.5,22 C5.5,22.414 5.164,22.75 4.75,22.75 C4.336,22.75 4,22.414 4,22 L4,18.948 C4,18.049 4,17.3 4.08,16.705 C4.164,16.078 4.35,15.511 4.805,15.056 C5.261,14.6 5.828,14.414 6.456,14.33 C7.05,14.25 7.798,14.25 8.695,14.25 Z M15.5,8.25 L10,8.25 L10,9 C10,10.519 11.231,11.75 12.75,11.75 C14.269,11.75 15.5,10.519 15.5,9 Z M12.75,4.25 C11.316,4.25 10.137,5.348 10.011,6.75 L15.489,6.75 C15.363,5.348 14.184,4.25 12.75,4.25 Z" />
</svg>